<svg xmlns="http://www.w3.org/2000/svg" width="600" height="626.786" viewBox="0 0 600 626.786"><linearGradient id="a" gradientUnits="userSpaceOnUse" x1="300" y1="626.786" x2="300"><stop offset="0" stop-color="#7e8805"/><stop offset="1" stop-color="#c6d000"/></linearGradient><path fill="url(#a)" d="M0 0h600v626.786H0z"/><path d="M170.135 369.643s-45.71-52.796 52.793-152.335c75.171-75.963 156.382-102.409 190.634-110.675 12.631-3.048 23.624-10.79 30.57-21.771 8.372-13.236 16.32-31.105 10.016-44.858-11.405-24.884-244.7 100.576-289.285 211.52-44.585 110.945.176 120.108 5.272 118.119zm110.993-102.047a6.257 6.257 0 0 0 6.258-6.257v-25.85a6.257 6.257 0 0 0-6.258-6.257H255.28a6.258 6.258 0 0 0-6.257 6.257v25.85a6.258 6.258 0 0 0 6.257 6.257h25.85zm46.946-10.804v-16.755a4.056 4.056 0 0 0-4.056-4.057h-16.755a4.056 4.056 0 0 0-4.056 4.057v16.755a4.056 4.056 0 0 0 4.056 4.055h16.755a4.056 4.056 0 0 0 4.056-4.055zm25.097-.382a2.609 2.609 0 0 0 2.609-2.608v-10.776a2.609 2.609 0 0 0-2.609-2.609h-10.775a2.608 2.608 0 0 0-2.61 2.61v10.775a2.608 2.608 0 0 0 2.61 2.608h10.775zm19.584-5.143v-5.707c0-.762-.618-1.381-1.381-1.381h-5.707c-.763 0-1.381.619-1.381 1.381v5.707c0 .763.618 1.382 1.381 1.382h5.707c.763 0 1.381-.619 1.381-1.382zm8.42-5.359a.817.817 0 0 0-.817.818v3.376c0 .452.366.818.818.818h3.376a.818.818 0 0 0 .818-.818v-3.376a.817.817 0 0 0-.818-.818h-3.376zM39.906 503.62c.848 0 2.06 0 3.39.361-.486-7.502-.847-18.99-.847-33.628v-20.811H63.62v-4.233c-6.293.12-11.493.12-14.88.12h-6.292c.24-6.413 0-11.373 3.144-15.004 2.18-2.537 5.687-3.991 9.679-3.991 5.082 0 7.986 1.334 10.766 3.144v-4.96c-3.264-1.695-7.256-2.537-10.766-2.537-11.13 0-18.269 6.895-18.269 20.079 0 31.578.243 52.023-.845 61.821 1.332-.24 2.66-.36 3.749-.36zm54.09 2.056c9.678 0 17.18-4.96 20.929-15.365 0 3.751-.12 8.35 1.331 13.67.728-.12 2.177-.48 3.024-.48s2.543.36 3.267.48c-.847-3.144-2.299-8.224-2.299-16.333 0-8.103.12-15.36.12-21.412 0-8.831-.724-15-7.379-19.237-3.387-2.176-8.71-3.505-14.274-3.505-6.05 0-11.13 1.208-16.093 3.871v5.928c4.358-3.024 9.198-5.446 16.213-5.446 5.323 0 10.283 1.815 12.582 4.112 2.904 2.908 3.267 6.413 3.508 10.892-18.873 9.919-40.045 6.654-40.045 25.765 0 9.077 6.654 17.06 19.116 17.06zm20.929-38.352c0 11.614-.725 20.204-5.564 26.618-3.51 4.599-8.83 7.382-14.397 7.382-9.074 0-14.154-6.173-14.154-12.948 0-15 15.242-11.614 34.115-21.052zm34.01-21.654c-.967 0-2.54-.24-3.387-.36.848 11.006.848 20.565.848 28.548 0 8.35 0 18.51-.848 30.123.968-.24 2.3-.48 3.387-.48 1.332 0 2.663.24 3.751.48-.604-7.376-.847-17.661-.847-30.003 0-11.854.243-21.653.847-28.669-.967.12-2.66.361-3.75.361zm.244-15.004a4.076 4.076 0 0 0 4.112-4.112c0-2.297-1.693-4.232-4.112-4.232-2.42 0-4.235 1.935-4.235 4.232 0 2.302 1.935 4.112 4.235 4.112zm53.72 12.828c-16.21 0-28.31 12.822-28.31 31.693 0 18.996 12.825 30.49 28.067 30.49 10.406 0 17.785-5.08 20.932-15.005 0 2.182-.12 6.294 1.208 13.31.484-.12 1.936-.482 2.543-.482.724 0 1.812 0 3.023.481-2.299-10.525-2.299-21.412-2.299-33.628 0-24.322.243-40.409.725-47.43-.845.126-2.54.366-3.508.366-1.088 0-2.54-.24-3.387-.366.243 3.872.483 14.037.727 29.763-4.96-5.928-10.406-9.192-19.72-9.192zm19.72 27.46c0 20.085-4.718 30.37-19.84 30.37-12.946 0-22.26-9.924-22.26-26.618 0-16.334 9.555-26.86 23.228-26.86 8.347 0 14.154 3.631 18.873 10.767v12.341zM295.83 503.5c1.209 0 2.784.24 3.629.481-.605-5.32-.605-14.271-.605-26.733 0-4.117.12-6.294.12-10.406 0-7.622-.36-13.188-5.443-18.148-3.508-3.505-8.467-5.2-14.274-5.2-9.074 0-13.793 3.871-19.48 9.438v-7.382c0-6.414.123-14.036.727-22.627-.847.126-2.663.366-3.63.366s-2.66-.24-3.388-.366c.848 12.221.848 25.29.848 38.714 0 20.33-.12 34.602-.848 42.344.848-.12 2.42-.48 3.63-.48.969 0 2.297.24 3.388.48-.123-5.566-.727-17.3-.727-34.842v-10.16c5.807-6.775 11.25-10.766 19.237-10.766 8.347 0 14.274 6.047 14.517 13.304.484 16.699.484 30.85-1.088 42.464.845-.24 2.176-.48 3.387-.48zm76.353-34.24c0-8.711-1.332-14.88-6.775-19.96-4.235-3.99-9.678-5.806-16.453-5.806-16.33 0-27.464 13.309-27.464 32.42 0 18.51 11.615 29.762 27.948 29.762 8.47 0 14.638-2.176 20.445-6.654v-6.168c-5.564 5.32-11.855 8.47-20.202 8.47-12.219 0-22.26-8.957-22.26-25.53 0-2.543.12-3.992.363-6.535h44.398zm-22.865-21.413c9.799 0 16.213 5.927 16.937 17.3H328.63c3.508-11.493 10.77-17.3 20.688-17.3zm52.036 15.004c4.355-9.318 11.737-14.638 19.234-14.638 2.302 0 4.117.722 5.326 1.088v-5.446c-2.422-.361-4.478-.361-5.928-.361-6.413 0-13.188 4.232-18.755 12.822V445.31c-.724.12-2.176.361-3.024.361-.967 0-2.54-.24-3.264-.36.604 6.167.845 15.725.845 28.187 0 12.702 0 22.982-.725 30.484 1.088-.24 2.42-.48 3.628-.48.968 0 2.059.12 3.388.48-1.088-22.14-.848-33.628-.848-34.962 0-2.417.123-3.751.123-6.168zm47.071-39.928c-.847.126-2.542.366-3.63.366-.968 0-2.543-.24-3.385-.366.722 10.526.601 23.229.601 38.233v11.007c0 6.655-.24 13.189 2.423 19.603 3.75 9.192 12.341 13.91 22.741 13.91 6.048 0 13.069-2.662 17.908-6.895 6.409-5.686 9.92-14.397 9.92-25.404 0-17.547-9.8-29.883-25.651-29.883-9.8 0-15.967 4.473-21.894 10.04.24-12.342.36-22.622.967-30.61zm20.686 24.924c5.446 0 10.285 2.056 13.916 6.047 4.719 5.085 6.048 11.374 6.048 19.723 0 18.028-8.831 27.707-22.02 27.707-7.983 0-14.879-4.478-17.662-11.74-.968-2.658-1.935-8.104-1.935-14.638V459.22c6.408-6.655 11.975-11.373 21.653-11.373zm72.604 57.83c8.47 0 14.638-2.177 20.445-6.655v-6.168c-5.566 5.32-11.855 8.47-20.204 8.47-12.216 0-22.26-8.957-22.26-25.53 0-2.543.12-3.992.365-6.535h44.4c0-8.71-1.333-14.878-6.774-19.958-4.238-3.992-9.678-5.807-16.453-5.807-16.333 0-27.466 13.309-27.466 32.42 0 18.51 11.614 29.762 27.947 29.762zm-.12-57.83c9.798 0 16.212 5.927 16.934 17.3h-37.62c3.505-11.493 10.767-17.3 20.686-17.3zM247.163 559.785c-.688 0-1.609-.157-2.145-.23.382 5.519.382 14.104.382 25.608 0 11.578 0 20.241-.382 25.76.536-.073 1.378-.303 2.145-.303.614 0 1.38.073 2.302.304-.46-7.283-.615-15.946-.615-25.76 0-9.742.154-18.327.615-25.61-.767.152-1.688.23-2.302.23zm20.555 14.183c-.613 0-1.61-.152-2.145-.23.536 6.978.536 13.037.536 18.095 0 5.29 0 11.73-.536 19.09.612-.151 1.457-.303 2.145-.303.844 0 1.687.152 2.377.304-.384-4.677-.536-11.19-.536-19.012 0-7.518.152-13.728.536-18.175-.612.079-1.687.23-2.377.23zm.154-14.8a2.67 2.67 0 0 0-2.684 2.683c0 1.46 1.227 2.61 2.684 2.61s2.608-1.15 2.608-2.61c0-1.454-1.075-2.684-2.608-2.684zm20.327.617c-.688 0-1.608-.157-2.145-.23.382 5.519.382 14.104.382 25.608 0 11.578 0 20.241-.382 25.76.537-.073 1.379-.303 2.145-.303.615 0 1.381.073 2.302.304-.46-7.283-.615-15.946-.615-25.76 0-9.742.155-18.327.615-25.61-.766.152-1.687.23-2.302.23zm20.555 0c-.688 0-1.609-.157-2.145-.23.382 5.519.382 14.104.382 25.608 0 11.578 0 20.241-.382 25.76.536-.073 1.379-.303 2.145-.303.615 0 1.381.073 2.302.304-.46-7.283-.615-15.946-.615-25.76 0-9.742.155-18.327.615-25.61-.766.152-1.687.23-2.302.23zm48.466 29.134c0-5.519-.843-9.432-4.293-12.65-2.684-2.532-6.134-3.683-10.43-3.683-10.35 0-17.405 8.434-17.405 20.55 0 11.73 7.361 18.86 17.712 18.86 5.368 0 9.278-1.376 12.959-4.217v-3.908c-3.527 3.375-7.513 5.368-12.805 5.368-7.745 0-14.11-5.676-14.11-16.181 0-1.606.08-2.527.23-4.139h28.142zm-14.492-13.57c6.21 0 10.275 3.756 10.735 10.965h-23.845c2.223-7.287 6.822-10.965 13.11-10.965zM27.996 536.358v2.678h541.247v-2.678H27.996z" fill="#fff"/></svg>